<svg xmlns="http://www.w3.org/2000/svg" width="40" height="40" viewBox="0 0 40 40" fill="none">
  <circle cx="20" cy="20" r="20" fill="#00754a"/>
  <path d="M20 6c-3.5 0-6.5 1.5-8.5 4l1.5 1.5C14.5 9 17 8 20 8c5 0 9 3 10.5 7.5l2.5-1C31 9.5 26 6 20 6z" fill="white"/>
  <path d="M20 34c3.5 0 6.5-1.5 8.5-4l-1.5-1.5C25.5 31 23 32 20 32c-5 0-9-3-10.5-7.5l-2.5 1C9 30.5 14 34 20 34z" fill="white"/>
  <path d="M20 12c-4 0-7.2 3.2-7.2 7.2h2.4c0-2.6 2.2-4.8 4.8-4.8s4.8 2.2 4.8 4.8h2.4c0-4-3.2-7.2-7.2-7.2z" fill="white"/>
  <line x1="20" y1="19.2" x2="20" y2="28" stroke="white" stroke-width="2" stroke-linecap="round"/>
  <line x1="14.5" y1="24" x2="25.5" y2="24" stroke="white" stroke-width="2" stroke-linecap="round"/>
</svg>
